<?xml version="1.0" encoding="utf-8"?>
<!-- Generator: Adobe Illustrator 24.3.0, SVG Export Plug-In . SVG Version: 6.00 Build 0)  -->
<svg version="1.1" id="Layer_1" xmlns="http://www.w3.org/2000/svg" xmlns:xlink="http://www.w3.org/1999/xlink" x="0px" y="0px"
	 viewBox="0 0 107.16 107.16" style="enable-background:new 0 0 107.16 107.16;" xml:space="preserve">
<style type="text/css">
	.st0{fill:#39AF79;}
	.st1{fill:#17694F;}
	.st2{fill:#6AC39B;}
	.st3{fill:#C3DFA1;}
</style>
<g>
	<path class="st0" d="M21.69,99.51C41.98,63.2,29.2,38.47,29.2,38.47C13.96,39.57,2.16,50.06,2.16,50.06
		c19.31,17.77,12.08,44.96,12.08,44.96S19.57,98.73,21.69,99.51z"/>
	<path class="st1" d="M22.36,101.32l-1.18-0.43c-2.22-0.82-7.22-4.27-7.78-4.67l-0.84-0.59l0.25-1c0.08-0.25,6.76-26.57-11.65-43.51
		l-1.2-1.1l1.22-1.08C1.67,48.49,13.55,38.1,29.1,36.98l0.96-0.08l0.45,0.86c0.53,1.04,12.9,25.84-7.55,62.43L22.36,101.32z
		 M15.91,94.37c1.39,0.94,3.63,2.39,5.18,3.22c16.73-30.84,9.16-52.98,7.24-57.57C17,41.16,7.67,47.63,4.4,50.14
		C20.57,66.3,16.94,89.28,15.91,94.37z"/>
</g>
<g>
	<path class="st2" d="M61.59,23.98C43.77,18.76,26.1,26.1,26.1,26.1c14.69,48.69-4.43,73.41-4.43,73.41s11.39,6.18,28.37,6.18
		C50.06,105.69,75.46,45.8,61.59,23.98z"/>
	<path class="st1" d="M51.04,107.16h-0.98c-17.18,0-28.61-6.1-29.08-6.35l-1.51-0.82l1.06-1.37c0.18-0.24,18.45-24.8,4.18-72.08
		l-0.39-1.27l1.24-0.51c0.75-0.31,18.33-7.47,36.45-2.18l0.53,0.16l0.29,0.47c14.1,22.24-10.37,80.59-11.41,83.06L51.04,107.16z
		 M23.87,98.92c3.47,1.55,12.77,5.12,25.22,5.29c3.04-7.47,23.31-59.12,11.55-78.98C46.36,21.27,32.1,25.53,27.91,27
		C40.16,68.96,27.71,92.9,23.87,98.92z"/>
</g>
<g>
	<path class="st3" d="M101.71,26.57C85.61,6,58.55,8.31,58.55,8.31c14.69,71.87-30.16,94.04-30.16,94.04s27.06,10.26,50.39-5.71
		C78.81,96.67,118.07,71.69,101.71,26.57z"/>
	<path class="st1" d="M48.63,107.16c-11.55,0-20.1-3.16-20.75-3.39l-3.16-1.2l3.02-1.49c0.12-0.06,11.06-5.63,20.1-19.71
		C62.97,57.79,61.24,28.8,57.12,8.65l-0.33-1.63l1.65-0.14c1.14-0.1,28.02-2.14,44.43,18.8l0.14,0.18l0.08,0.22
		c8.65,23.88,1.8,42.14-5.47,53.26c-7.84,12-17.61,18.29-18.02,18.57C69.08,105.12,57.89,107.16,48.63,107.16z M32.02,101.94
		c7.63,2.04,28.06,5.76,45.96-6.49c0.14-0.08,9.75-6.29,17.24-17.8c9.94-15.28,11.69-32.22,5.2-50.34
		C87.24,10.69,66.34,9.67,60.34,9.74c3.98,20.67,5.22,49.59-10.12,73.38C43.57,93.41,36.06,99.28,32.02,101.94z"/>
</g>
<g>
	<g>
		<path class="st1" d="M36.98,105.36l-1.63-2.45c3.75-2.51,7.78-6.35,11.65-11.14l2.29,1.84C45.16,98.71,41.02,102.67,36.98,105.36z
			"/>
	</g>
	<g>
		<path class="st1" d="M49.28,93.63l-2.29-1.84c1.86-2.31,3.71-4.84,5.31-7.35c7.26-11.26,15.33-30.9,12.55-60.65l-0.14-1.37
			l1.35-0.22c3.65-0.57,6.24-2.88,6.92-6.18l0.33-1.59l1.55,0.47c13.45,4.16,23.96,11.8,31.26,22.75l-2.45,1.63
			c-6.65-9.98-16.16-17.06-28.26-21.1c-1.2,3.29-3.9,5.69-7.55,6.65c2.49,29.86-5.73,49.75-13.14,61.22
			C53.12,88.61,51.22,91.24,49.28,93.63z"/>
	</g>
</g>
<g>
	<path class="st1" d="M80.38,96.77c-1.61,0-3.2-0.25-4.69-0.75l0.92-2.78c1.33,0.45,2.76,0.65,4.22,0.59l0.1,2.94
		C80.75,96.77,80.57,96.77,80.38,96.77z"/>
</g>
<g>
	<path class="st1" d="M75.69,96.02c-0.73-0.24-1.45-0.55-2.14-0.9c-4-2.08-6.8-5.86-7.9-10.63c-1.06-4.69-0.35-9.78,2.04-14.35
		c2.37-4.57,6.14-8.1,10.59-9.92c4.53-1.86,9.24-1.73,13.24,0.35c5.16,2.69,8.27,8.16,8.37,14.67l-2.94,0.04
		c-0.08-5.41-2.61-9.92-6.78-12.1c-3.24-1.69-7.06-1.76-10.77-0.24c-3.8,1.55-7.04,4.59-9.1,8.55c-2.06,3.96-2.69,8.35-1.78,12.35
		c0.9,3.92,3.16,7,6.39,8.69c0.55,0.29,1.12,0.53,1.71,0.73L75.69,96.02z"/>
</g>
<g>
	<path class="st1" d="M27.98,102.2l-2.57-1.43c7.12-12.8,14.39-31.65,7.51-64.04l-0.29-1.33l1.31-0.37
		c2.86-0.82,4.84-3.47,4.84-6.43c0-0.1,0-0.18-0.02-0.27l-0.1-1.49l1.33-0.2c2.71-0.39,5.37-0.59,7.88-0.59
		c3.71,0,10.51,1.06,13.75,1.8l-0.67,2.86c-3.04-0.71-9.65-1.73-13.08-1.73c-2,0-4.08,0.14-6.22,0.39c-0.29,3.49-2.49,6.57-5.65,8
		C42.71,69.96,35.26,89.12,27.98,102.2z"/>
</g>
<g>
	<path class="st1" d="M20.36,97.96l-2.88-0.61c3.63-17.04,1.76-30.82-5.75-42.12l-0.76-1.16l1.12-0.82
		c0.78-0.59,1.24-1.47,1.24-2.45c0-0.55-0.14-1.06-0.41-1.53l-0.76-1.33l1.35-0.71c3.65-1.92,10.16-4.43,16.47-5.24l0.37,2.92
		c-5.29,0.67-10.73,2.63-14.29,4.33c0.14,0.51,0.22,1.04,0.22,1.57c0,1.41-0.51,2.78-1.41,3.86C22.26,66.43,24.06,80.63,20.36,97.96
		z"/>
</g>
</svg>
