<?xml version="1.0" encoding="utf-8"?>
<!-- Generator: Adobe Illustrator 24.3.0, SVG Export Plug-In . SVG Version: 6.00 Build 0)  -->
<svg version="1.1" id="Layer_1" xmlns="http://www.w3.org/2000/svg" xmlns:xlink="http://www.w3.org/1999/xlink" x="0px" y="0px"
	 viewBox="0 0 195.44 97.66" style="enable-background:new 0 0 195.44 97.66;" xml:space="preserve">
<style type="text/css">
	.st0{enable-background:new    ;}
	.st1{fill:#17694F;}
	.st2{fill:#39AF79;}
	.st3{fill:#6AC39B;}
	.st4{fill:#C3DFA1;}
</style>
<g>
	<g>
		<g class="st0">
			<path class="st1" d="M15.94,49.82c-3.17,0-5.96-0.65-8.36-1.96c-2.4-1.3-4.27-3.09-5.59-5.37S0,37.61,0,34.66
				c0-2.94,0.64-5.55,1.93-7.83c1.29-2.27,3.06-4.05,5.31-5.34s4.8-1.93,7.63-1.93c2.87,0,5.41,0.63,7.61,1.9s3.92,3.05,5.17,5.34
				s1.87,4.97,1.87,8.03c0,0.22-0.01,0.49-0.03,0.78c-0.02,0.3-0.05,0.58-0.08,0.84H4.2v-3.86h22.43l-2.18,1.34
				c0.04-1.9-0.35-3.6-1.17-5.09s-1.95-2.66-3.38-3.5c-1.44-0.84-3.1-1.26-5.01-1.26c-1.86,0-3.52,0.42-4.98,1.26
				s-2.59,2.01-3.41,3.52s-1.23,3.24-1.23,5.17v0.9c0,1.98,0.46,3.74,1.37,5.28c0.91,1.55,2.19,2.75,3.83,3.61s3.52,1.29,5.65,1.29
				c1.75,0,3.35-0.3,4.78-0.89c1.43-0.6,2.69-1.49,3.77-2.68l2.96,3.47c-1.34,1.57-3.01,2.76-5,3.58
				C20.63,49.41,18.4,49.82,15.94,49.82z"/>
			<path class="st1" d="M42.84,49.82c-2.2,0-4.13-0.37-5.79-1.12c-1.66-0.75-2.94-1.78-3.83-3.1s-1.34-2.82-1.34-4.5
				c0-1.6,0.38-3.06,1.15-4.36c0.76-1.3,2.01-2.35,3.75-3.13c1.73-0.78,4.07-1.17,7.02-1.17h9.4v3.86h-9.17
				c-2.68,0-4.49,0.45-5.42,1.34c-0.93,0.9-1.4,1.98-1.4,3.24c0,1.45,0.58,2.62,1.73,3.5c1.16,0.88,2.76,1.31,4.81,1.31
				c2.01,0,3.78-0.45,5.29-1.34s2.6-2.2,3.27-3.91l1.06,3.69c-0.71,1.75-1.96,3.14-3.75,4.17C47.82,49.31,45.56,49.82,42.84,49.82z
				 M52.57,49.49v-6.26l-0.28-1.17V31.37c0-2.27-0.66-4.04-1.99-5.29c-1.32-1.25-3.31-1.87-5.96-1.87c-1.75,0-3.47,0.29-5.14,0.87
				c-1.68,0.58-3.1,1.35-4.25,2.32l-2.24-4.03c1.53-1.23,3.36-2.17,5.51-2.82c2.14-0.65,4.39-0.98,6.74-0.98
				c4.06,0,7.2,0.99,9.4,2.96c2.2,1.98,3.3,5,3.3,9.06v17.9H52.57z"/>
			<path class="st1" d="M74.16,49.82c-2.46,0-4.8-0.34-7.02-1.01c-2.22-0.67-3.96-1.49-5.23-2.46l2.24-4.25
				c1.27,0.86,2.83,1.58,4.7,2.18c1.86,0.6,3.77,0.89,5.7,0.89c2.5,0,4.3-0.35,5.4-1.06s1.65-1.7,1.65-2.96
				c0-0.93-0.34-1.66-1.01-2.18c-0.67-0.52-1.56-0.91-2.66-1.17c-1.1-0.26-2.32-0.49-3.66-0.7c-1.34-0.2-2.68-0.47-4.03-0.78
				s-2.57-0.76-3.69-1.34s-2.01-1.38-2.68-2.4c-0.67-1.03-1.01-2.4-1.01-4.11c0-1.79,0.5-3.36,1.51-4.7s2.43-2.38,4.28-3.1
				s4.04-1.09,6.57-1.09c1.94,0,3.9,0.23,5.9,0.7c1.99,0.47,3.63,1.13,4.89,1.99l-2.29,4.25c-1.34-0.89-2.74-1.51-4.19-1.84
				c-1.45-0.34-2.91-0.5-4.36-0.5c-2.35,0-4.1,0.38-5.26,1.15c-1.16,0.76-1.73,1.74-1.73,2.94c0,1.01,0.34,1.78,1.03,2.32
				s1.58,0.96,2.68,1.26s2.32,0.55,3.66,0.75c1.34,0.21,2.68,0.47,4.03,0.78c1.34,0.32,2.56,0.75,3.66,1.31
				c1.1,0.56,1.99,1.34,2.68,2.35s1.04,2.35,1.04,4.03c0,1.79-0.52,3.34-1.57,4.64c-1.04,1.31-2.52,2.32-4.42,3.05
				C79.08,49.46,76.81,49.82,74.16,49.82z"/>
			<path class="st1" d="M92.45,60.67c-1.42,0-2.8-0.23-4.14-0.7c-1.34-0.47-2.5-1.15-3.47-2.04l2.29-4.03
				c0.75,0.71,1.57,1.25,2.46,1.62s1.85,0.56,2.85,0.56c1.3,0,2.38-0.33,3.24-1.01c0.86-0.67,1.66-1.87,2.41-3.58l1.84-4.08
				l0.56-0.67l11.63-26.9h5.26l-14.37,32.6c-0.86,2.09-1.82,3.73-2.88,4.92c-1.06,1.19-2.23,2.04-3.5,2.54
				C95.37,60.42,93.98,60.67,92.45,60.67z M99.49,50.44L85.96,19.85h5.59l11.52,26.4L99.49,50.44z"/>
		</g>
	</g>
	<g>
		<circle class="st1" cx="156.99" cy="30.29" r="29.55"/>
	</g>
	<g>
		<path class="st2" d="M143.7,56.7c10.35-18.52,3.83-31.13,3.83-31.13c-7.77,0.56-13.79,5.91-13.79,5.91
			c9.85,9.06,6.16,22.93,6.16,22.93S142.62,56.3,143.7,56.7z"/>
		<path class="st1" d="M144.04,57.62l-0.6-0.22c-1.13-0.42-3.68-2.18-3.97-2.38l-0.43-0.3l0.13-0.51
			c0.04-0.13,3.45-13.55-5.94-22.19l-0.61-0.56l0.62-0.55c0.25-0.23,6.31-5.53,14.24-6.1l0.49-0.04l0.23,0.44
			c0.27,0.53,6.58,13.18-3.85,31.84L144.04,57.62z M140.75,54.08c0.71,0.48,1.85,1.22,2.64,1.64c8.53-15.73,4.67-27.02,3.69-29.36
			c-5.77,0.58-10.53,3.88-12.2,5.16C143.13,39.76,141.28,51.48,140.75,54.08z"/>
	</g>
	<g>
		<path class="st3" d="M164.05,18.18c-9.09-2.66-18.1,1.08-18.1,1.08c7.49,24.83-2.26,37.44-2.26,37.44s5.81,3.15,14.47,3.15
			C158.17,59.85,171.12,29.31,164.05,18.18z"/>
		<path class="st1" d="M158.67,60.6h-0.5c-8.76,0-14.59-3.11-14.83-3.24l-0.77-0.42l0.54-0.7c0.09-0.12,9.41-12.65,2.13-36.76
			l-0.2-0.65l0.63-0.26c0.38-0.16,9.35-3.81,18.59-1.11l0.27,0.08l0.15,0.24c7.19,11.34-5.29,41.1-5.82,42.36L158.67,60.6z
			 M144.81,56.4c1.77,0.79,6.51,2.61,12.86,2.7c1.55-3.81,11.89-30.15,5.89-40.28c-7.28-2.02-14.55,0.15-16.69,0.9
			C153.12,41.12,146.77,53.33,144.81,56.4z"/>
	</g>
	<g>
		<path class="st4" d="M184.51,19.5c-8.21-10.49-22.01-9.31-22.01-9.31c7.49,36.65-15.38,47.96-15.38,47.96s13.8,5.23,25.7-2.91
			C172.83,55.25,192.85,42.51,184.51,19.5z"/>
		<path class="st1" d="M157.44,60.6c-5.89,0-10.25-1.61-10.58-1.73l-1.61-0.61l1.54-0.76c0.06-0.03,5.64-2.87,10.25-10.05
			c7.71-12.03,6.83-26.81,4.73-37.09l-0.17-0.83l0.84-0.07c0.58-0.05,14.29-1.09,22.66,9.59l0.07,0.09l0.04,0.11
			c4.41,12.18,0.92,21.49-2.79,27.16c-4,6.12-8.98,9.33-9.19,9.47C167.87,59.56,162.16,60.6,157.44,60.6z M148.97,57.94
			c3.89,1.04,14.31,2.94,23.44-3.31c0.07-0.04,4.97-3.21,8.79-9.08c5.07-7.79,5.96-16.43,2.65-25.67c-6.72-8.48-17.38-9-20.44-8.96
			c2.03,10.54,2.66,25.29-5.16,37.42C154.86,53.59,151.03,56.58,148.97,57.94z"/>
	</g>
	<g>
		<path class="st1" d="M156.99,60.6c-16.71,0-30.3-13.59-30.3-30.3S140.28,0,156.99,0s30.3,13.59,30.3,30.3S173.7,60.6,156.99,60.6z
			 M156.99,1.49c-15.88,0-28.8,12.92-28.8,28.81s12.92,28.81,28.8,28.81S185.8,46.19,185.8,30.3S172.87,1.49,156.99,1.49z"/>
	</g>
	<g>
		<g>
			<path class="st1" d="M151.5,59.68l-0.83-1.25c1.91-1.28,3.97-3.24,5.94-5.68l1.17,0.94C155.67,56.29,153.56,58.31,151.5,59.68z"
				/>
		</g>
		<g>
			<path class="st1" d="M157.77,53.7l-1.17-0.94c0.95-1.18,1.89-2.47,2.71-3.75c3.7-5.74,7.82-15.76,6.4-30.93l-0.07-0.7l0.69-0.11
				c1.86-0.29,3.18-1.47,3.53-3.15l0.17-0.81l0.79,0.24c6.86,2.12,12.22,6.02,15.94,11.6l-1.25,0.83
				c-3.39-5.09-8.24-8.7-14.41-10.76c-0.61,1.68-1.99,2.9-3.85,3.39c1.27,15.23-2.92,25.37-6.7,31.22
				C159.73,51.14,158.76,52.48,157.77,53.7z"/>
		</g>
	</g>
	<g>
		<path class="st1" d="M173.63,55.3c-0.82,0-1.63-0.13-2.39-0.38l0.47-1.42c0.68,0.23,1.41,0.33,2.15,0.3l0.05,1.5
			C173.82,55.3,173.73,55.3,173.63,55.3z"/>
	</g>
	<g>
		<path class="st1" d="M171.24,54.92c-0.37-0.12-0.74-0.28-1.09-0.46c-2.04-1.06-3.47-2.99-4.03-5.42
			c-0.54-2.39-0.18-4.99,1.04-7.32c1.21-2.33,3.13-4.13,5.4-5.06c2.31-0.95,4.71-0.88,6.75,0.18c2.63,1.37,4.22,4.16,4.27,7.48
			l-1.5,0.02c-0.04-2.76-1.33-5.06-3.46-6.17c-1.65-0.86-3.6-0.9-5.49-0.12c-1.94,0.79-3.59,2.34-4.64,4.36s-1.37,4.26-0.91,6.3
			c0.46,2,1.61,3.57,3.26,4.43c0.28,0.15,0.57,0.27,0.87,0.37L171.24,54.92z"/>
	</g>
	<g>
		<path class="st1" d="M146.91,58.07l-1.31-0.73c3.63-6.53,7.34-16.14,3.83-32.66L149.28,24l0.67-0.19
			c1.46-0.42,2.47-1.77,2.47-3.28c0-0.05,0-0.09-0.01-0.14l-0.05-0.76l0.68-0.1c1.38-0.2,2.74-0.3,4.02-0.3
			c1.89,0,5.36,0.54,7.01,0.92l-0.34,1.46c-1.55-0.36-4.92-0.88-6.67-0.88c-1.02,0-2.08,0.07-3.17,0.2
			c-0.15,1.78-1.27,3.35-2.88,4.08C154.42,41.63,150.62,51.4,146.91,58.07z"/>
	</g>
	<g>
		<path class="st1" d="M143.02,55.91l-1.47-0.31c1.85-8.69,0.9-15.72-2.93-21.48l-0.39-0.59l0.57-0.42c0.4-0.3,0.63-0.75,0.63-1.25
			c0-0.28-0.07-0.54-0.21-0.78l-0.39-0.68l0.69-0.36c1.86-0.98,5.18-2.26,8.4-2.67l0.19,1.49c-2.7,0.34-5.47,1.34-7.29,2.21
			c0.07,0.26,0.11,0.53,0.11,0.8c0,0.72-0.26,1.42-0.72,1.97C143.99,39.83,144.91,47.07,143.02,55.91z"/>
	</g>
	<g class="st0">
		<path class="st1" d="M3.17,97.22V58.07h9.06v39.15C12.23,97.22,3.17,97.22,3.17,97.22z"/>
		<path class="st1" d="M37.22,66.68c2.39,0,4.52,0.48,6.4,1.43c1.88,0.95,3.36,2.4,4.45,4.36c1.08,1.96,1.62,4.47,1.62,7.52v17.22
			h-8.72V81.33c0-2.42-0.53-4.21-1.59-5.37c-1.06-1.16-2.56-1.73-4.5-1.73c-1.38,0-2.62,0.29-3.72,0.87
			c-1.1,0.58-1.96,1.46-2.57,2.66c-0.61,1.19-0.92,2.72-0.92,4.59v14.88h-8.72v-30.1h8.33v8.33l-1.57-2.52
			c1.08-2.01,2.63-3.56,4.64-4.64C32.36,67.22,34.65,66.68,37.22,66.68z"/>
		<path class="st1" d="M63.23,97.22L50.59,67.13h9L70.1,93.02h-4.47l10.91-25.89h8.39L72.24,97.22H63.23z"/>
		<path class="st1" d="M100.03,97.66c-3.21,0-6.05-0.67-8.53-2.01c-2.48-1.34-4.44-3.18-5.87-5.51c-1.44-2.33-2.15-4.99-2.15-7.97
			c0-3.02,0.72-5.69,2.15-8.03c1.43-2.33,3.39-4.16,5.87-5.48s5.32-1.99,8.53-1.99c3.17,0,6,0.66,8.5,1.99
			c2.5,1.32,4.46,3.14,5.87,5.45s2.12,5,2.12,8.05c0,2.98-0.71,5.64-2.12,7.97s-3.37,4.17-5.87,5.51
			C106.03,96.99,103.2,97.66,100.03,97.66z M100.03,90.51c1.45,0,2.76-0.34,3.91-1.01c1.16-0.67,2.07-1.63,2.74-2.88
			s1.01-2.73,1.01-4.45c0-1.75-0.33-3.24-1.01-4.47c-0.67-1.23-1.59-2.18-2.74-2.85c-1.16-0.67-2.46-1.01-3.91-1.01
			s-2.76,0.34-3.91,1.01c-1.16,0.67-2.08,1.62-2.77,2.85c-0.69,1.23-1.03,2.72-1.03,4.47c0,1.72,0.34,3.2,1.03,4.45
			s1.61,2.21,2.77,2.88C97.27,90.17,98.57,90.51,100.03,90.51z"/>
		<path class="st1" d="M124.75,62.94c-1.6,0-2.91-0.46-3.92-1.4c-1.01-0.93-1.51-2.09-1.51-3.47c0-1.38,0.5-2.54,1.51-3.47
			s2.31-1.4,3.92-1.4c1.6,0,2.91,0.44,3.91,1.31c1.01,0.88,1.51,2,1.51,3.38c0,1.45-0.5,2.66-1.48,3.61
			C127.7,62.46,126.39,62.94,124.75,62.94z M120.38,97.22V67.13h8.72v30.09H120.38z"/>
		<path class="st1" d="M149.8,97.66c-3.24,0-6.13-0.66-8.67-1.99c-2.54-1.32-4.52-3.16-5.96-5.51s-2.15-5.01-2.15-8
			c0-3.02,0.72-5.69,2.15-8.03c1.43-2.33,3.42-4.16,5.96-5.48c2.54-1.32,5.42-1.99,8.67-1.99c3.17,0,5.93,0.66,8.28,1.99
			c2.35,1.32,4.08,3.22,5.2,5.68l-6.77,3.63c-0.78-1.42-1.76-2.46-2.94-3.13c-1.17-0.67-2.45-1.01-3.83-1.01
			c-1.49,0-2.83,0.34-4.03,1.01s-2.13,1.62-2.82,2.85c-0.69,1.23-1.03,2.72-1.03,4.47s0.34,3.24,1.03,4.47s1.63,2.18,2.82,2.85
			s2.54,1.01,4.03,1.01c1.38,0,2.66-0.33,3.83-0.98s2.15-1.71,2.94-3.16l6.77,3.69c-1.12,2.42-2.85,4.3-5.2,5.62
			C155.73,97,152.97,97.66,149.8,97.66z"/>
		<path class="st1" d="M180.89,97.66c-3.43,0-6.44-0.67-9.03-2.01c-2.59-1.34-4.6-3.18-6.01-5.51s-2.12-4.99-2.12-7.97
			c0-3.02,0.7-5.69,2.1-8.03c1.4-2.33,3.31-4.16,5.73-5.48s5.16-1.99,8.22-1.99c2.94,0,5.6,0.62,7.97,1.87s4.24,3.04,5.62,5.37
			c1.38,2.33,2.07,5.12,2.07,8.36c0,0.33-0.02,0.72-0.06,1.15s-0.08,0.83-0.11,1.2h-24.44v-5.09h19.85l-3.36,1.51
			c0-1.57-0.32-2.93-0.95-4.08c-0.63-1.15-1.51-2.06-2.63-2.71c-1.12-0.65-2.42-0.98-3.92-0.98s-2.81,0.33-3.94,0.98
			c-1.14,0.65-2.02,1.57-2.66,2.74c-0.63,1.17-0.95,2.56-0.95,4.17v1.34c0,1.64,0.36,3.08,1.09,4.33s1.75,2.2,3.08,2.85
			s2.88,0.98,4.67,0.98c1.6,0,3.01-0.24,4.22-0.73c1.21-0.48,2.32-1.21,3.33-2.18l4.64,5.03c-1.38,1.57-3.11,2.77-5.2,3.61
			C186.02,97.25,183.62,97.66,180.89,97.66z"/>
	</g>
</g>
</svg>
